<svg xmlns="http://www.w3.org/2000/svg" width="257" height="42" viewBox="0 0 257 42" xmlns:xlink="http://www.w3.org/1999/xlink">
  <defs>
    <linearGradient id="a" x1="28.922%" x2="85.866%" y1="-10.959%" y2="77.296%">
      <stop stop-color="#003C89" offset="0%"/>
      <stop stop-color="#00A4E3" offset="100%"/>
    </linearGradient>
    <path id="b" d="M2.26669767,0.284922384 C0.929860465,0.284922384 0,0.993367151 0,2.66408808 L0,18.769623 C0,20.1032451 0.929860465,21.1461026 2.22437209,21.1461026 L3.72139535,21.1461026 C7.08074419,21.1461026 9.50762791,17.5172538 12.7432558,13.5902538 C16.2634419,9.29727994 20.0265116,5.29372762 25.3256744,5.29372762 C30.5434419,5.29372762 34.4289302,9.21535552 38.0285581,13.5902538 C41.4660465,17.7663846 43.6116279,21.1461026 46.8889302,21.1461026 L48.1827907,21.1461026 C49.8816744,21.1461026 50.7692093,20.0548962 50.7692093,18.769623 L50.7692093,2.66408808 C50.7692093,0.951061919 49.8009302,0.284922384 48.5057674,0.284922384 L2.26669767,0.284922384 Z"/>
    <linearGradient id="c" x1="16.2534939%" y1="-34.9813127%" x2="83.6890363%" y2="134.286276%" gradientTransform="rotate(-50) translate(.8 0)">
      <stop stop-color="#BCDCF5" offset="0%"/>
      <stop stop-color="#5CC0EB" offset="14%"/>
      <stop stop-color="#00A5E1" offset="20%"/>
      <stop stop-color="#009DDA" offset="22%"/>
      <stop stop-color="#005C9E" offset="32%"/>
      <stop stop-color="#004387" offset="56%"/>
      <stop stop-color="#004387" offset="100%"/>
    </linearGradient>
  </defs>
  <g fill="none" fill-rule="evenodd">
    <path fill="#004388" d="M21.5828131,0.324930233 L16.2380297,0.324930233 C15.383127,0.324930233 15.0567932,0.888186047 15.0567932,1.69888372 L15.0567932,19.8630698 C15.0567932,20.471907 15.8716429,20.5513488 17.1369251,20.5513488 C18.4015508,20.5513488 19.2177137,20.471907 19.2177137,19.8630698 L19.2177137,12.2587907 L20.5237056,12.2587907 C22.6018677,12.2587907 23.2965582,13.9947907 23.9085162,15.4573023 L25.786413,19.8630698 C26.070724,20.5116279 26.8041543,20.5513488 27.9473076,20.5513488 C29.5376105,20.5513488 30.2316444,20.471907 30.2316444,19.9431628 C30.2316444,19.7406512 30.1101721,19.379907 29.7418154,18.5275349 L28.1108029,14.7260465 C27.2526171,12.7406512 26.8041543,12.015907 25.2158213,11.1244651 C28.2322752,10.1542326 29.1712236,8.17144186 29.1712236,5.90604651 C29.1712236,2.62744186 27.2119075,0.324930233 21.5828131,0.324930233 L21.5828131,0.324930233 Z M21.0936407,3.51888372 C23.3379244,3.51888372 24.8474646,4.04697674 24.8474646,6.23162791 C24.8474646,8.65981395 23.0115906,9.22306977 21.3378986,9.22306977 L19.2177137,9.22306977 L19.2177137,3.51888372 L21.0936407,3.51888372 Z M75.8770138,3.5612093 C79.8363558,3.5612093 82.3242408,5.42027907 82.3242408,10.4348837 C82.3242408,15.2945116 79.9959114,17.3131163 75.9617161,17.3131163 L73.7975385,17.3131163 L73.7975385,3.5612093 L75.8770138,3.5612093 Z M76.1219283,0.324930233 L70.8644737,0.324930233 C70.0489674,0.324930233 69.6399011,0.888186047 69.6399011,1.69888372 L69.6399011,19.299814 C69.6399011,20.1443721 70.0489674,20.5513488 70.8644737,20.5513488 L75.7988775,20.5513488 C83.9165135,20.5513488 86.6072902,16.3884651 86.6072902,10.3547907 C86.6072902,4.40902326 83.9565666,0.324930233 76.1219283,0.324930233 L76.1219283,0.324930233 Z M133.928321,11.6890233 C136.907349,11.6890233 137.881754,12.6605581 137.881754,14.4844651 C137.881754,16.8716279 136.171292,17.4335814 134.500226,17.4335814 L131.605901,17.4335814 L131.605901,11.6890233 L133.928321,11.6890233 Z M133.803566,0.324930233 L128.624904,0.324930233 C127.810055,0.324930233 127.441698,0.808093023 127.441698,1.69888372 L127.441698,19.299814 C127.441698,20.1443721 127.810055,20.5513488 128.624904,20.5513488 L134.0951,20.5513488 C139.922489,20.5513488 142.211422,17.804093 142.211422,14.5254884 C142.211422,11.3673488 140.085328,9.95432558 138.131265,9.66846512 C139.560699,9.06288372 141.027559,7.92855814 141.027559,5.46130233 C141.027559,2.22697674 138.535078,0.324930233 133.803566,0.324930233 L133.803566,0.324930233 Z M133.601331,3.47851163 C135.724142,3.47851163 136.82396,4.04697674 136.82396,5.94837209 C136.82396,8.00865116 135.520594,8.61618605 133.803566,8.61618605 L131.605901,8.61618605 L131.605901,3.47851163 L133.601331,3.47851163 Z M189.24289,-7.10542736e-15 C183.817344,-7.10542736e-15 178.636712,3.07413953 178.636712,10.5149767 C178.636712,16.0615814 181.531694,20.8743256 189.124701,20.8743256 C191.407067,20.8743256 193.117529,20.4315349 194.466857,19.9431628 C195.68946,19.5003721 195.730827,19.3388837 195.730827,18.2846512 L195.730827,11.6890233 C195.730827,10.9232558 195.077502,10.8431628 193.691404,10.8431628 C192.545625,10.8431628 191.611929,10.8431628 191.611929,11.6486512 L191.611929,16.9517209 C191.000628,17.3131163 190.185778,17.4746047 189.24289,17.4746047 C184.514004,17.4746047 182.879709,13.6744186 182.879709,10.3157209 C182.879709,5.66186047 185.980865,3.3547907 189.571193,3.3547907 C192.017712,3.3547907 193.609985,4.40902326 194.381499,4.85311628 C194.710459,5.05562791 194.91532,5.13702326 195.03351,5.13702326 C195.445859,5.13702326 195.652034,4.56986047 195.652034,3.39972093 C195.652034,2.71144186 195.68946,2.22697674 195.195692,1.73990698 C194.381499,0.888186047 192.183834,-7.10542736e-15 189.24289,-7.10542736e-15 L189.24289,-7.10542736e-15 Z M10.44741,12.46 C11.22155,12.46 11.3036259,12.015907 11.3036259,10.804093 C11.3036259,9.58446512 11.22155,9.14297674 10.44741,9.14297674 L4.40924931,9.14297674 L4.40924931,3.72139535 L10.8144535,3.72139535 C11.5879369,3.72139535 11.6706694,3.27730233 11.6706694,2.02251163 C11.6706694,0.767069767 11.5879369,0.324930233 10.8144535,0.324930233 L1.59568705,0.324930233 C0.656738617,0.324930233 0.248328879,0.808093023 0.248328879,1.69888372 L0.248328879,19.8630698 C0.248328879,20.471907 1.06317853,20.5513488 2.32846079,20.5513488 C3.59374305,20.5513488 4.40924931,20.471907 4.40924931,19.8630698 L4.40924931,12.46 L10.44741,12.46 Z M44.6303858,17.3131163 L37.4910947,17.3131163 L37.4910947,11.6076279 L43.4471795,11.6076279 C44.2246025,11.6076279 44.3053652,11.1648372 44.3053652,10.0331163 C44.3053652,8.90009302 44.2246025,8.456 43.4471795,8.456 L37.4910947,8.456 L37.4910947,3.5612093 L44.5896762,3.5612093 C45.3670992,3.5612093 45.4478619,3.11451163 45.4478619,1.94176744 C45.4478619,0.767069767 45.3670992,0.324930233 44.5896762,0.324930233 L34.5554035,0.324930233 C33.6985309,0.324930233 33.3321441,0.929209302 33.3321441,1.69888372 L33.3321441,19.299814 C33.3321441,20.1443721 33.7398972,20.5513488 34.5554035,20.5513488 L44.6303858,20.5513488 C45.4078089,20.5513488 45.4885715,20.1046512 45.4885715,18.9306047 C45.4885715,17.7572093 45.4078089,17.3131163 44.6303858,17.3131163 L44.6303858,17.3131163 Z M101.620616,17.3131163 L94.4800117,17.3131163 L94.4800117,11.6076279 L100.43741,11.6076279 C101.210893,11.6076279 101.290343,11.1648372 101.290343,10.0331163 C101.290343,8.90009302 101.210893,8.456 100.43741,8.456 L94.4800117,8.456 L94.4800117,3.5612093 L101.579906,3.5612093 C102.357329,3.5612093 102.435466,3.11451163 102.435466,1.94176744 C102.435466,0.767069767 102.357329,0.324930233 101.579906,0.324930233 L91.5403808,0.324930233 C90.6881046,0.324930233 90.3164648,0.929209302 90.3164648,1.69888372 L90.3164648,19.299814 C90.3164648,20.1443721 90.7261878,20.5513488 91.5403808,20.5513488 L101.620616,20.5513488 C102.394756,20.5513488 102.476832,20.1046512 102.476832,18.9306047 C102.476832,17.7572093 102.394756,17.3131163 101.620616,17.3131163 L101.620616,17.3131163 Z M156.934528,17.3131163 L149.797863,17.3131163 L149.797863,11.6076279 L155.751321,11.6076279 C156.528745,11.6076279 156.61279,11.1648372 156.61279,10.0331163 C156.61279,8.90009302 156.528745,8.456 155.751321,8.456 L149.797863,8.456 L149.797863,3.5612093 L156.893162,3.5612093 C157.671241,3.5612093 157.752004,3.11451163 157.752004,1.94176744 C157.752004,0.767069767 157.671241,0.324930233 156.893162,0.324930233 L146.862172,0.324930233 C146.000703,0.324930233 145.639569,0.929209302 145.639569,1.69888372 L145.639569,19.299814 C145.639569,20.1443721 146.045352,20.5513488 146.862172,20.5513488 L156.934528,20.5513488 C157.711951,20.5513488 157.789431,20.1046512 157.789431,18.9306047 C157.789431,17.7572093 157.711951,17.3131163 156.934528,17.3131163 L156.934528,17.3131163 Z M65.3135156,1.00865116 C65.3135156,0.405023256 64.4953829,0.324930233 63.2307573,0.324930233 C61.9667882,0.324930233 61.154565,0.405023256 61.154565,1.00865116 L61.154565,12.7406512 C61.154565,15.127814 60.21496,17.5136744 56.9903615,17.5136744 C53.7690462,17.5136744 52.7913579,15.127814 52.7913579,12.7406512 L52.7913579,1.00865116 C52.7913579,0.405023256 51.9732252,0.324930233 50.7092562,0.324930233 C49.4439739,0.324930233 48.6291242,0.405023256 48.6291242,1.00865116 L48.6291242,13.1443721 C48.6291242,18.9306047 52.4230012,20.8743256 56.9903615,20.8743256 C61.5196387,20.8743256 65.3135156,18.9306047 65.3135156,13.1443721 L65.3135156,1.00865116 Z M109.700169,19.8630698 L109.658803,7.07748837 L109.574757,4.81013953 L110.430316,6.75581395 L111.329868,8.53609302 L116.427111,18.0456744 C117.040382,19.2197209 117.651683,20.5513488 119.448817,20.5513488 L121.243982,20.5513488 C121.975442,20.5513488 122.789635,20.1899535 122.789635,19.0517209 L122.789635,1.00865116 C122.789635,0.405023256 121.975442,0.324930233 120.916335,0.324930233 C119.855914,0.324930233 119.040408,0.405023256 119.040408,1.00865116 C119.040408,11.0834419 119.040408,11.9293023 119.081774,12.7015814 C119.159254,14.8458605 119.040408,12.9444651 119.159254,14.9259535 L119.118544,14.9259535 L118.547952,13.7147907 L112.593837,2.42688372 C111.817071,0.929209302 111.369921,0.324930233 109.700169,0.324930233 L107.455228,0.324930233 C106.474914,0.324930233 105.941749,0.970883721 105.941749,1.82 L105.941749,19.8630698 C105.941749,20.471907 106.759225,20.5513488 107.817676,20.5513488 C108.882036,20.5513488 109.700169,20.471907 109.700169,19.8630698 L109.700169,19.8630698 Z M167.949115,0.324930233 L162.607615,0.324930233 C161.751399,0.324930233 161.421125,0.888186047 161.421125,1.69888372 L161.421125,19.8630698 C161.421125,20.471907 162.239915,20.5513488 163.505854,20.5513488 C164.769823,20.5513488 165.585329,20.471907 165.585329,19.8630698 L165.585329,12.2587907 L166.808588,12.2587907 C168.97014,12.2587907 169.664173,13.9947907 170.277445,15.4573023 L172.150745,19.8630698 C172.435056,20.5116279 173.17177,20.5513488 174.316893,20.5513488 C175.908509,20.5513488 176.598603,20.471907 176.598603,19.9431628 C176.598603,19.7406512 176.473848,19.379907 176.112714,18.5275349 L174.479075,14.7260465 C173.617606,12.7406512 173.17177,12.015907 171.579497,11.1244651 C174.598577,10.1542326 175.534899,8.17144186 175.534899,5.90604651 C175.534899,2.62744186 173.579523,0.324930233 167.949115,0.324930233 L167.949115,0.324930233 Z M167.461256,3.51888372 C169.70357,3.51888372 171.21114,4.04697674 171.21114,6.23162791 C171.21114,8.65981395 169.375266,9.22306977 167.704857,9.22306977 L165.585329,9.22306977 L165.585329,3.51888372 L167.461256,3.51888372 Z" transform="translate(60.558)"/>
    <path fill="url(#a)" d="M19.6605581,8.37798052 L19.6605581,8.42028576 C20.6737674,8.1281782 21.6850233,8.00462006 22.4931163,8.00462006 L22.4931163,8.00462006 C26.2555349,8.00462006 29.127814,10.7531172 30.9484651,12.967091 L30.9484651,12.967091 L35.3177674,18.1807073 C37.2992558,20.5175677 38.8783256,21.1461026 40.7386977,21.1461026 L40.7386977,21.1461026 C41.4256744,21.1461026 42.1933953,21.0581346 42.3568372,20.9809108 L42.3568372,20.9809108 L42.3568372,20.9325619 C42.1536744,20.849966 40.6175814,20.3523759 38.3932093,17.6414834 L38.3932093,17.6414834 L35.1146047,13.5902538 C32.4448372,10.2991753 29.2092093,6.75292238 24.475907,6.75292238 L24.475907,6.75292238 C21.5619535,6.75292238 19.9425116,8.1281782 19.6605581,8.37798052"/>
    <path fill="url(#a)" d="M20.3468837,9.71294564 L20.3468837,9.75525087 C22.6539535,10.0863061 24.3964651,11.0109776 26.659907,13.7211985 L26.659907,13.7211985 L30.7466047,18.6440503 C32.000093,20.185841 33.7393488,21.1461026 35.6817674,21.1461026 L35.6817674,21.1461026 C36.0874419,21.1461026 36.6135814,21.1051404 36.8968372,21.0178439 L36.8968372,21.0178439 L36.8968372,20.9809108 C35.8035349,20.6424689 34.5500465,20.1032451 33.2542326,18.5191491 L33.2542326,18.5191491 L29.0066977,13.4237189 C27.3872558,11.465591 24.7585116,9.37987587 22.1304186,9.37987587 L22.1304186,9.37987587 C21.4017674,9.37987587 20.6333953,9.54506773 20.3468837,9.71294564"/>
    <path fill="url(#c)" d="M2.26669767,0.284922384 C0.929860465,0.284922384 0,0.993367151 0,2.66408808 L0,2.66408808 L0,18.769623 C0,20.1032451 0.929860465,21.1461026 2.22437209,21.1461026 L2.22437209,21.1461026 L3.72139535,21.1461026 C7.08074419,21.1461026 9.50762791,17.5172538 12.7432558,13.5902538 L12.7432558,13.5902538 C16.2634419,9.29727994 20.0265116,5.29372762 25.3256744,5.29372762 L25.3256744,5.29372762 C30.5434419,5.29372762 34.4289302,9.21535552 38.0285581,13.5902538 L38.0285581,13.5902538 C41.4660465,17.7663846 43.6116279,21.1461026 46.8889302,21.1461026 L46.8889302,21.1461026 L48.1827907,21.1461026 C49.8816744,21.1461026 50.7692093,20.0548962 50.7692093,18.769623 L50.7692093,18.769623 L50.7692093,2.66408808 C50.7692093,0.951061919 49.8009302,0.284922384 48.5057674,0.284922384 L48.5057674,0.284922384 L2.26669767,0.284922384 Z"/>
    <g fill="#004388" transform="translate(61.535 31.256)">
      <polygon points=".096 10.358 1.419 10.358 1.419 .331 .096 .331"/>
      <path d="M11.0904609 10.3579326L6.29883763 3.89194709C5.76373583 3.19223198 5.49520008 2.7953686 5.28772502 2.39984826L5.25686639 2.39984826C5.28772502 2.73493256 5.30282605 3.14522616 5.30282605 3.64885988L5.30282605 10.3579326 3.97787459 10.3579326 3.97787459.330249419 5.33171499.330249419 9.9296511 6.5544907C10.5245005 7.36030465 10.8068241 7.74172326 11.0005113 8.15335988L11.0307133 8.15335988C11.0162689 7.77126977 11.0005113 7.34620291 11.0005113 6.84391221L11.0005113.330249419 12.3248062.330249419 12.3248062 10.3579326 11.0904609 10.3579326zM21.9947195 10.3579326L17.2037528 3.89194709C16.6679944 3.19223198 16.4001153 2.7953686 16.1919836 2.39984826L16.1617816 2.39984826C16.1919836 2.73493256 16.2070847 3.14522616 16.2070847 3.64885988L16.2070847 10.3579326 14.8821332 10.3579326 14.8821332.330249419 16.2366302.330249419 20.8339097 6.5544907C21.4294157 7.36030465 21.7117393 7.74172326 21.9047699 8.15335988L21.934972 8.15335988C21.9205275 7.77126977 21.9047699 7.34620291 21.9047699 6.84391221L21.9047699.330249419 23.2290648.330249419 23.2290648 10.3579326 21.9947195 10.3579326zM30.1463225 1.47155058C28.0328345 1.47155058 26.6645497 2.99453895 26.6645497 5.39922209 26.6645497 7.80323372 28.0328345 9.32487907 30.1463225 9.32487907 32.2584974 9.32487907 33.6280954 7.80323372 33.6280954 5.39922209 33.6280954 3.11473953 32.3779925 1.47155058 30.1463225 1.47155058M26.6350042 1.68509128C27.5121772.786608721 28.7327346.254771512 30.1463225.254771512 31.663648.254771512 32.9583974.832943023 33.821126 1.82140814 34.6096625 2.73533547 35.0561278 3.96823081 35.0561278 5.3824343 35.0561278 6.91952442 34.5203694 8.24374535 33.6129943 9.15565814 32.7345082 10.0239227 31.5441529 10.5107686 30.1463225 10.5107686 28.7924821 10.5107686 27.6461168 10.070257 26.7833882 9.26377151 25.8162656 8.35118721 25.2509617 6.99540523 25.2509617 5.41332384 25.2509617 3.90712326 25.7571746 2.61379186 26.6350042 1.68509128M40.425661 10.4044683L39.5918214 10.4044683 35.6793408.330450872 37.1080298.330450872 39.5031849 6.67623576C39.6962155 7.20874448 39.8899027 7.77147122 40.0684888 8.30397994L40.0986908 8.30397994C40.277277 7.78825901 40.4552065 7.26918052 40.6928836 6.69168052L43.283039.330450872 44.6513239.330450872 40.425661 10.4044683zM48.4737235 3.54114942C48.2951374 3.03885872 48.1756422 2.62923663 48.1014502 2.29415233L48.0870057 2.29415233C47.9977127 2.65878314 47.877561 3.03885872 47.6996314 3.52637616L46.6136702 6.57100988 49.4999371 6.57100988 48.4737235 3.54114942zM50.9437271 10.357664L49.9464024 7.74145465 46.1527604 7.74145465 45.2302843 10.357664 43.9204339 10.357664 47.685187.299762791 48.533471.299762791 52.3573151 10.357664 50.9437271 10.357664z"/>
      <polygon points="58.991 1.534 56.254 1.534 56.254 10.358 54.915 10.358 54.915 1.534 52.102 1.534 52.102 .331 59.393 .331"/>
      <polygon points="60.864 10.358 62.188 10.358 62.188 .331 60.864 .331"/>
      <path d="M71.8591168 10.3579326L67.0681501 3.89194709C66.5323917 3.19223198 66.2645125 2.7953686 66.0563809 2.39984826L66.0268354 2.39984826C66.0563809 2.73493256 66.0714819 3.14522616 66.0714819 3.64885988L66.0714819 10.3579326 64.7478436 10.3579326 64.7478436.330249419 66.101684.330249419 70.6989635 6.5544907C71.2938129 7.36030465 71.5767931 7.74172326 71.7698237 8.15335988L71.8000258 8.15335988C71.7842682 7.77126977 71.7698237 7.34620291 71.7698237 6.84391221L71.7698237.330249419 73.0941186.330249419 73.0941186 10.3579326 71.8591168 10.3579326zM80.0113764 10.5107015C77.0647053 10.5107015 75.1160156 8.41088459 75.1160156 5.4891375 75.1160156 2.40018401 77.2130894.25470436 80.3383465.25470436 81.5575908.25470436 82.5555721.575015407 83.1208759.832875872L83.1057749 2.20275959C82.4505214 1.85155901 81.4840553 1.44126541 80.367892 1.44126541 77.8532418 1.44126541 76.5447045 3.08512587 76.5447045 5.33603285 76.5447045 7.75616076 77.9871814 9.30869564 80.3383465 9.30869564 81.1564286 9.30869564 81.7361769 9.15559099 82.0940057 8.94339331L82.0940057 5.44414622 83.417644 5.44414622 83.417644 9.67399797C82.7630471 10.0393003 81.4984998 10.5107015 80.0113764 10.5107015"/>
      <polygon points="95.665 1.534 92.928 1.534 92.928 10.358 91.589 10.358 91.589 1.534 88.778 1.534 88.778 .331 96.067 .331"/>
      <path d="M101.19911 1.47155058C99.0862784 1.47155058 97.7179936 2.99453895 97.7179936 5.39922209 97.7179936 7.80323372 99.0862784 9.32487907 101.19911 9.32487907 103.312598 9.32487907 104.681539 7.80323372 104.681539 5.39922209 104.681539 3.11473953 103.431436 1.47155058 101.19911 1.47155058M97.6884481 1.68509128C98.5662776.786608721 99.7855219.254771512 101.19911.254771512 102.717092.254771512 104.010528.832943023 104.87457 1.82140814 105.663106 2.73533547 106.109572 3.96823081 106.109572 5.3824343 106.109572 6.91952442 105.573157 8.24374535 104.666438 9.15565814 103.788609 10.0239227 102.598253 10.5107686 101.19911 10.5107686 99.8452694 10.5107686 98.7002172 10.070257 97.8368321 9.26377151 96.8690529 8.35118721 96.3044056 6.99540523 96.3044056 5.41332384 96.3044056 3.90712326 96.8106185 2.61379186 97.6884481 1.68509128M112.476824 10.5107015C109.530153 10.5107015 107.580806 8.41088459 107.580806 5.4891375 107.580806 2.40018401 109.678537.25470436 112.803137.25470436 114.022381.25470436 115.020363.575015407 115.58501.832875872L115.571222 2.20275959C114.915969 1.85155901 113.948846 1.44126541 112.833339 1.44126541 110.318032 1.44126541 109.008839 3.08512587 109.008839 5.33603285 109.008839 7.75616076 110.452629 9.30869564 112.803137 9.30869564 113.621876 9.30869564 114.201624 9.15559099 114.558796 8.94339331L114.558796 5.44414622 115.882435 5.44414622 115.882435 9.67399797C115.228494 10.0393003 113.963947 10.5107015 112.476824 10.5107015"/>
      <polygon points="118.307 10.358 118.307 .33 123.321 .33 122.89 1.534 119.631 1.534 119.631 4.637 122.86 4.637 122.86 5.823 119.631 5.823 119.631 9.156 123.351 9.156 123.351 10.358"/>
      <polygon points="131.503 1.534 128.765 1.534 128.765 10.358 127.425 10.358 127.425 1.534 124.614 1.534 124.614 .331 131.904 .331"/>
      <polygon points="139.863 10.358 139.863 5.87 134.7 5.87 134.7 10.358 133.376 10.358 133.376 .33 134.7 .33 134.7 4.668 139.863 4.668 139.863 .33 141.188 .33 141.188 10.358"/>
      <polygon points="143.76 10.358 143.76 .33 148.774 .33 148.343 1.534 145.084 1.534 145.084 4.637 148.313 4.637 148.313 5.823 145.084 5.823 145.084 9.156 148.804 9.156 148.804 10.358"/>
      <path d="M153.207657,1.53386686 L152.284524,1.53386686 L152.284524,5.07810523 L153.25099,5.07810523 C154.323163,5.07810523 155.126144,4.24073023 155.126144,3.23816337 C155.126144,2.32423605 154.619275,1.53386686 153.207657,1.53386686 L153.207657,1.53386686 Z M156.078166,10.3582012 C154.515537,7.78765465 153.667253,6.29555581 153.265435,6.20423023 L152.284524,6.20423023 L152.284524,10.3582012 L150.959573,10.3582012 L150.959573,0.330518023 L153.191243,0.330518023 C155.571953,0.330518023 156.50953,1.56408488 156.50953,3.08573023 C156.50953,4.48583198 155.6166,5.3823 154.635033,5.76439012 L154.635033,5.77849186 C154.991548,5.96181453 156.063722,7.78765465 157.625694,10.3582012 L156.078166,10.3582012 Z"/>
    </g>
  </g>
</svg>